<?xml version="1.0" standalone="no"?>
<!DOCTYPE svg PUBLIC "-//W3C//DTD SVG 20010904//EN"
 "http://www.w3.org/TR/2001/REC-SVG-20010904/DTD/svg10.dtd">
<svg version="1.0" xmlns="http://www.w3.org/2000/svg"
 width="2000.000000pt" height="2000.000000pt" viewBox="0 0 2000.000000 2000.000000"
 preserveAspectRatio="xMidYMid meet">
<metadata>
Created by potrace 1.13, written by Peter Selinger 2001-2015
</metadata>
<g transform="translate(0.000000,2000.000000) scale(0.100000,-0.100000)"
fill="#000000" stroke="none">
<path d="M9835 19880 c-38 -4 -216 -8 -394 -9 -423 -1 -659 -20 -1076 -86 -49
-8 -162 -21 -250 -29 -88 -9 -187 -22 -220 -30 -92 -22 -234 -62 -297 -84 -31
-11 -98 -28 -150 -37 -95 -16 -145 -27 -233 -52 -27 -7 -79 -18 -115 -24 -60
-9 -131 -36 -235 -90 -192 -99 -339 -169 -351 -169 -6 0 -35 -19 -65 -41 -30
-23 -88 -58 -129 -78 -41 -20 -93 -48 -115 -62 -94 -61 -267 -161 -358 -207
-53 -28 -113 -64 -132 -81 -34 -30 -287 -159 -367 -187 -61 -21 -158 -84 -305
-196 -49 -37 -112 -84 -142 -105 -30 -21 -89 -71 -131 -110 -58 -55 -90 -77
-133 -92 -40 -14 -81 -41 -140 -92 -271 -235 -274 -238 -306 -302 -21 -42 -44
-71 -71 -90 -22 -16 -58 -53 -80 -82 -22 -30 -44 -56 -50 -60 -6 -4 -28 -30
-49 -58 -22 -29 -65 -79 -96 -112 -31 -33 -64 -71 -73 -85 -52 -79 -142 -186
-222 -265 -119 -117 -198 -214 -262 -323 -51 -88 -109 -175 -176 -268 -20 -28
-63 -88 -95 -133 -32 -45 -80 -107 -107 -136 -27 -30 -57 -69 -66 -87 -9 -18
-27 -46 -39 -63 -13 -16 -32 -48 -42 -70 -11 -22 -39 -74 -63 -115 -55 -96
-80 -146 -80 -159 0 -6 -11 -39 -24 -73 -30 -80 -66 -210 -101 -373 -7 -33
-23 -87 -35 -120 -31 -86 -57 -182 -64 -240 -4 -27 -11 -70 -16 -95 -6 -25
-24 -136 -41 -247 -16 -111 -39 -226 -49 -257 -19 -52 -20 -85 -20 -528 0
-388 3 -488 16 -558 9 -47 20 -161 24 -255 9 -191 21 -278 44 -323 13 -25 14
-37 5 -59 -8 -19 -11 -120 -10 -303 1 -160 -2 -304 -9 -343 -7 -49 -8 -188 -1
-485 6 -229 13 -561 16 -738 l7 -320 -79 -12 c-50 -8 -104 -25 -150 -47 -88
-43 -197 -135 -212 -177 -18 -51 -13 -110 13 -158 14 -25 32 -61 41 -80 10
-19 26 -45 36 -59 10 -13 19 -33 19 -45 0 -11 56 -113 124 -226 329 -544 293
-472 376 -747 30 -97 31 -112 33 -285 1 -117 -3 -197 -10 -223 -19 -64 -37
-654 -24 -777 6 -57 20 -251 31 -433 19 -308 38 -528 75 -902 19 -180 60 -311
117 -370 60 -62 223 -164 306 -190 164 -53 360 -66 537 -37 l100 17 39 -26
c21 -15 47 -27 56 -27 15 0 19 -14 25 -87 11 -135 50 -303 86 -374 54 -107 89
-225 89 -298 0 -83 40 -248 79 -326 17 -33 69 -148 117 -255 47 -107 136 -298
196 -425 l110 -230 163 -165 c89 -91 218 -230 288 -310 175 -202 405 -433 581
-586 86 -74 167 -154 190 -187 24 -34 100 -108 186 -181 80 -67 215 -192 300
-275 85 -84 175 -167 200 -184 25 -17 65 -47 90 -67 25 -21 56 -43 70 -50 14
-7 84 -70 155 -140 72 -69 140 -133 152 -141 11 -7 75 -59 141 -114 191 -158
301 -226 492 -302 63 -25 165 -65 227 -90 62 -24 145 -51 185 -59 40 -8 152
-32 248 -54 96 -21 221 -45 278 -54 56 -9 146 -23 200 -31 70 -12 188 -16 427
-18 305 -2 348 0 565 26 256 30 288 36 525 108 116 35 210 72 340 135 99 47
221 104 270 125 157 69 608 310 660 354 28 23 66 53 86 66 36 25 101 73 193
145 29 23 69 52 88 65 71 49 145 100 213 150 39 28 87 61 107 75 21 13 84 68
141 122 56 53 144 133 196 177 85 73 390 415 449 505 13 19 102 112 197 205
154 152 179 181 230 270 77 135 99 167 174 258 35 43 75 95 89 115 13 20 57
75 96 122 40 47 83 101 96 120 13 19 45 60 70 90 26 30 55 69 64 85 9 17 35
55 56 85 22 30 70 100 107 154 38 55 84 122 103 149 50 71 84 123 125 192 20
33 56 92 80 130 24 39 60 97 80 130 20 33 56 92 80 130 24 39 83 142 131 230
48 88 93 171 101 183 24 40 131 357 162 481 37 145 98 382 147 566 20 77 41
160 46 185 6 25 14 49 18 53 15 17 104 -32 130 -71 47 -71 112 -142 154 -166
102 -61 114 -65 261 -85 225 -32 301 -29 426 15 57 20 117 43 133 51 17 9 96
82 177 162 131 132 216 238 266 336 10 19 64 199 98 325 11 43 17 188 25 665
9 517 9 679 -5 1064 -13 366 -19 469 -34 534 l-19 80 34 206 c21 122 47 240
65 289 39 112 59 288 59 529 0 150 3 197 15 220 8 15 22 44 30 63 8 19 37 66
65 105 29 41 50 81 50 96 0 29 -95 306 -112 327 -7 7 -38 27 -69 43 -32 16
-60 33 -64 38 -3 6 -33 25 -66 43 l-61 33 6 100 c6 92 -14 371 -28 393 -3 5
-15 83 -26 173 -12 90 -25 180 -31 200 -5 20 -7 44 -3 52 3 8 -1 28 -9 44 -8
15 -22 66 -32 113 -9 47 -22 105 -30 130 -7 25 -16 61 -19 82 -7 38 -57 140
-84 171 -9 10 -11 17 -4 17 7 0 32 31 57 68 32 48 48 85 55 125 6 31 15 83 20
115 6 31 18 95 26 141 8 46 24 101 35 122 10 21 19 47 19 58 0 11 16 66 35
123 73 212 70 191 50 351 -9 78 -26 169 -36 203 -10 33 -26 96 -35 139 -9 43
-27 108 -41 144 -25 67 -43 159 -68 351 -7 58 -22 143 -34 190 -11 47 -25 132
-32 190 -7 58 -20 127 -30 155 -17 45 -33 139 -59 345 -26 213 -32 251 -46
320 -46 225 -71 314 -126 455 -24 61 -45 137 -54 195 -10 65 -22 105 -38 131
-14 20 -30 55 -36 78 -26 98 -248 484 -344 599 -21 25 -54 71 -74 102 -77 121
-126 196 -143 220 -10 14 -44 63 -75 110 -31 47 -65 96 -75 110 -11 14 -37 50
-58 80 -22 30 -65 80 -96 110 -31 30 -69 75 -85 100 -16 25 -60 72 -97 106
-72 64 -84 73 -203 150 -41 27 -84 56 -96 66 -11 10 -45 31 -75 47 -30 15 -72
38 -94 49 -22 12 -71 35 -110 52 -38 17 -95 44 -125 59 -30 16 -68 32 -85 36
-16 3 -70 27 -120 51 -49 25 -112 51 -140 59 -27 7 -81 25 -120 40 -38 15
-122 45 -185 67 -139 48 -241 87 -256 99 -6 5 -35 17 -65 28 -241 83 -370 132
-454 171 -22 10 -53 22 -70 25 -37 8 -143 41 -210 65 -70 25 -159 50 -231 66
-34 7 -92 24 -128 39 -37 15 -92 30 -124 35 -87 13 -154 27 -187 40 -16 6 -64
16 -105 21 -41 5 -100 14 -130 19 -30 5 -101 14 -157 20 -57 5 -120 17 -140
25 -21 8 -87 26 -148 40 -60 14 -126 30 -146 35 -19 5 -103 13 -185 16 -104 5
-165 13 -203 26 -35 12 -83 18 -136 18 -46 0 -142 9 -215 20 -138 21 -430 26
-585 10z m-398 -5508 c36 -63 176 -223 264 -303 717 -649 2018 -1161 3719
-1464 219 -38 265 -50 325 -80 39 -19 133 -51 210 -71 l140 -38 332 -4 c319
-3 334 -3 379 17 25 12 48 21 49 21 2 0 24 -17 50 -39 61 -50 136 -176 179
-299 26 -77 35 -122 42 -217 9 -134 10 -252 4 -365 -3 -41 -1 -123 3 -181 l9
-107 -70 -7 c-51 -5 -108 -1 -211 15 -124 19 -152 20 -233 10 -152 -18 -496
-4 -646 27 l-123 25 -157 -16 c-86 -9 -236 -16 -332 -16 -192 0 -525 -14 -720
-30 -69 -5 -192 -15 -275 -21 -82 -6 -199 -17 -260 -25 -60 -7 -216 -21 -345
-29 -129 -8 -262 -22 -295 -30 -33 -9 -138 -29 -233 -45 -101 -17 -296 -62
-470 -109 -163 -44 -344 -89 -402 -100 -58 -11 -145 -27 -193 -36 -49 -9 -162
-45 -257 -80 -92 -36 -215 -78 -273 -95 -58 -17 -129 -41 -159 -54 -77 -35
-393 -133 -469 -145 -35 -6 -104 -17 -154 -25 -173 -29 -324 -31 -485 -6 -116
17 -166 21 -251 15 -90 -5 -124 -3 -237 19 -123 24 -151 26 -420 26 -158 0
-431 -7 -607 -15 -176 -8 -462 -18 -635 -21 -298 -5 -343 -9 -835 -65 -538
-61 -844 -105 -1265 -184 -135 -25 -344 -62 -465 -80 -121 -19 -269 -44 -330
-55 -80 -15 -122 -18 -155 -11 l-45 8 47 22 c38 18 52 32 81 85 47 85 64 152
87 341 11 88 27 196 35 240 41 210 57 310 65 430 6 72 14 155 20 185 5 30 14
96 19 145 9 87 18 118 64 218 21 45 23 47 63 47 106 0 580 61 819 105 762 142
1345 351 1774 635 266 177 469 402 579 642 22 47 45 111 52 141 25 124 109
184 225 163 53 -10 115 -72 149 -148 96 -216 209 -370 412 -568 430 -417 1033
-706 1794 -860 85 -17 182 -34 215 -37 l61 -6 65 71 c111 120 156 238 146 387
-12 184 -102 327 -363 573 -28 26 -128 381 -163 582 -34 190 -44 319 -39 527
4 156 10 220 28 301 13 56 28 102 34 102 6 0 21 -17 33 -38z m7305 -3193 c35
-23 74 -49 87 -58 17 -12 34 -46 58 -116 l33 -99 -25 -42 c-14 -24 -30 -46
-35 -49 -6 -4 -28 -43 -50 -88 l-40 -81 0 -206 c-1 -256 -17 -392 -62 -535
-23 -71 -47 -185 -68 -319 l-33 -208 22 -102 c19 -87 24 -162 37 -536 12 -362
13 -535 3 -1030 l-11 -595 -38 -130 c-21 -71 -41 -144 -45 -161 -3 -17 -22
-55 -41 -85 -20 -29 -42 -66 -50 -80 -7 -15 -76 -90 -151 -166 l-138 -139
-106 -37 c-124 -43 -149 -45 -354 -17 -133 18 -152 23 -203 55 -32 19 -68 52
-82 73 -56 85 -115 144 -165 166 -91 41 -185 68 -210 62 -38 -10 -50 -38 -95
-211 -40 -156 -98 -379 -179 -699 -93 -360 -183 -561 -434 -969 -23 -37 -78
-127 -122 -200 -76 -126 -159 -253 -310 -472 -38 -55 -93 -136 -122 -179 -64
-95 -193 -260 -440 -565 -40 -49 -109 -152 -154 -228 -79 -131 -91 -146 -243
-295 -89 -86 -175 -175 -191 -198 -17 -23 -99 -124 -183 -223 -116 -138 -190
-215 -307 -318 -85 -74 -163 -147 -174 -161 -12 -14 -46 -43 -77 -64 -31 -22
-75 -52 -98 -69 -72 -51 -141 -99 -187 -130 -24 -16 -66 -48 -94 -71 -27 -23
-64 -50 -80 -60 -17 -11 -55 -38 -85 -62 -192 -150 -201 -156 -615 -372 -71
-37 -159 -80 -195 -95 -36 -15 -153 -69 -260 -120 -107 -52 -229 -104 -270
-115 -41 -12 -88 -25 -105 -30 -161 -45 -253 -63 -456 -87 -214 -25 -260 -28
-534 -26 -209 2 -329 7 -397 18 -54 8 -144 22 -200 31 -57 9 -188 35 -293 59
-104 23 -210 46 -235 50 -43 7 -191 63 -421 158 -217 90 -423 240 -719 523
-76 73 -162 148 -191 168 -119 80 -161 114 -314 264 -88 85 -221 208 -295 271
-74 64 -137 119 -139 124 -14 34 -125 147 -249 254 -175 152 -377 354 -549
553 -70 80 -195 215 -279 300 l-153 155 -106 218 c-58 119 -146 308 -195 420
-50 111 -104 231 -120 267 -40 90 -70 216 -70 299 0 72 -39 201 -95 311 -33
65 -61 189 -80 352 -9 73 -18 141 -21 150 -8 28 -85 78 -118 78 -17 0 -40 7
-50 15 -26 20 -130 20 -221 0 -121 -25 -261 -17 -424 26 -77 21 -116 41 -216
112 -56 40 -62 48 -87 119 -28 80 -36 141 -77 588 -21 219 -32 383 -51 705 -6
99 -15 219 -20 267 -13 114 5 618 26 742 13 73 15 128 9 273 l-6 183 -55 177
c-56 181 -62 193 -204 428 -43 72 -95 157 -115 190 -19 33 -61 103 -93 155
-31 52 -65 120 -75 151 -9 31 -24 62 -32 69 -8 7 -15 18 -15 25 0 7 -13 29
-30 50 -16 21 -30 44 -30 52 0 42 147 126 249 143 54 9 81 19 98 36 l24 25 73
-65 c52 -47 87 -90 126 -156 29 -50 58 -94 64 -99 6 -4 34 -16 61 -26 28 -10
60 -27 72 -38 26 -23 93 -135 113 -187 7 -19 32 -73 56 -120 23 -47 54 -114
69 -150 15 -36 48 -105 74 -155 26 -49 54 -108 63 -130 9 -22 45 -87 79 -145
34 -58 120 -220 192 -360 71 -140 149 -294 173 -341 24 -48 44 -89 44 -93 0
-3 18 -37 41 -74 23 -37 50 -89 60 -115 70 -177 136 -269 279 -394 203 -179
414 -287 669 -344 135 -30 420 -42 831 -36 389 7 558 16 845 48 515 56 880
146 1160 284 400 197 731 591 894 1063 40 118 70 253 91 416 41 321 58 375
178 562 89 139 134 166 305 183 124 12 131 10 243 -72 92 -68 144 -151 229
-363 83 -205 141 -327 210 -435 104 -161 215 -339 215 -345 0 -15 122 -199
212 -321 63 -86 109 -138 130 -149 18 -9 47 -26 63 -39 49 -36 221 -101 355
-134 260 -64 459 -83 872 -82 198 0 364 6 465 15 148 15 204 20 458 46 441 46
856 151 1162 295 218 102 424 246 563 391 96 99 139 156 225 293 95 152 161
395 214 791 27 200 29 219 46 440 12 154 18 197 31 205 8 6 45 29 82 53 91 58
250 118 334 126 l66 6 6 -37 c3 -21 11 -139 17 -262 7 -162 17 -257 34 -342
20 -97 25 -163 31 -368 5 -177 11 -258 20 -273 7 -13 21 -38 30 -55 19 -36 43
-48 79 -39 25 6 34 22 46 81 29 146 50 236 64 275 10 27 16 77 17 125 4 815 1
757 41 795 17 17 51 36 75 42 28 7 51 21 65 40 25 34 205 164 317 229 124 71
253 185 334 294 29 39 90 108 136 155 45 47 89 93 98 103 23 26 44 21 114 -24z
m-3290 -224 c210 -15 215 -16 343 -61 157 -56 154 -54 237 -121 62 -51 72 -65
143 -200 64 -123 80 -165 109 -281 42 -170 52 -347 35 -633 -12 -208 -30 -310
-110 -603 -37 -135 -46 -157 -100 -237 -48 -72 -80 -105 -176 -184 -110 -89
-132 -103 -320 -190 -194 -90 -209 -95 -410 -140 -114 -26 -278 -67 -363 -91
-179 -50 -414 -84 -745 -109 -115 -8 -268 -20 -339 -25 -168 -13 -399 -13
-606 0 -158 10 -170 13 -270 52 -58 22 -168 70 -245 106 -127 58 -147 72 -219
141 -166 162 -350 443 -441 676 -32 83 -78 194 -101 247 -37 85 -44 115 -59
235 -9 76 -25 198 -36 271 -18 123 -18 140 -4 232 8 55 15 102 15 104 0 16
210 182 248 196 126 48 802 275 992 334 185 56 266 75 575 130 311 56 392 67
595 81 262 17 967 74 990 79 28 7 50 6 262 -9z m-6230 -785 c445 -53 479 -59
657 -121 147 -50 157 -56 217 -111 81 -76 126 -157 153 -279 41 -185 51 -334
27 -409 -8 -25 -20 -79 -26 -120 -6 -41 -20 -112 -31 -158 -10 -45 -19 -93
-19 -107 0 -13 -15 -56 -34 -95 -19 -40 -45 -115 -56 -168 -34 -150 -167 -410
-275 -540 -45 -53 -102 -116 -126 -139 -45 -43 -181 -116 -480 -257 l-156 -73
-134 -12 c-74 -7 -215 -25 -314 -41 -99 -16 -243 -31 -320 -35 -457 -20 -752
-37 -914 -55 -165 -17 -190 -18 -245 -5 -34 8 -95 19 -136 25 -179 25 -349 82
-623 206 -93 42 -123 62 -211 141 -94 83 -109 103 -164 201 -47 85 -64 128
-77 193 -23 119 -70 318 -117 504 l-40 160 -1 260 c0 347 16 462 79 575 l45
79 72 21 c151 44 226 70 337 118 176 75 358 114 726 156 1001 114 1100 122
1591 124 247 2 279 0 595 -38z"/>
<path d="M11940 12409 c-248 -34 -387 -63 -635 -134 -27 -7 -85 -19 -129 -24
-43 -6 -82 -14 -87 -17 -5 -2 -41 -9 -81 -15 -159 -20 -179 -25 -341 -82 -39
-14 -93 -58 -134 -112 -35 -47 -35 -47 -31 -133 3 -73 9 -95 32 -135 51 -86
140 -145 297 -197 48 -16 105 -39 127 -50 48 -25 249 -78 347 -91 151 -20 191
-21 300 -4 61 10 182 21 270 26 228 11 307 27 385 79 101 67 155 100 164 100
6 0 28 15 49 34 21 18 68 49 104 67 92 47 86 47 728 -26 72 -8 149 -19 172
-25 23 -5 84 -10 136 -10 52 0 107 -4 123 -10 63 -21 415 -57 457 -46 47 11
67 40 67 96 0 36 -7 61 -24 88 -32 50 -84 98 -126 117 -19 8 -42 19 -50 24
-82 49 -346 160 -409 171 -84 15 -223 61 -300 99 -42 21 -107 49 -146 61 -38
13 -92 31 -120 41 -27 10 -88 28 -135 40 -47 12 -94 26 -104 31 -10 6 -64 17
-120 26 -116 18 -676 26 -786 11z"/>
<path d="M6359 11936 c-6 -6 -181 -27 -304 -36 -210 -15 -331 -33 -448 -66
-66 -19 -131 -34 -145 -34 -30 0 -162 -17 -237 -30 -125 -23 -156 -29 -245
-53 -52 -14 -126 -37 -165 -52 -38 -15 -119 -44 -180 -65 -60 -21 -145 -52
-188 -69 -43 -17 -85 -31 -94 -31 -8 0 -42 -12 -74 -26 -71 -32 -116 -94 -125
-171 -7 -54 9 -173 28 -217 70 -157 92 -176 214 -176 46 0 86 5 89 10 4 6 24
19 45 30 21 11 41 28 45 39 3 11 27 32 53 47 26 15 73 47 105 70 32 24 84 58
115 76 l57 33 570 6 c485 5 583 8 660 23 75 15 105 16 180 7 50 -6 162 -16
250 -22 88 -6 185 -17 215 -25 30 -8 81 -14 113 -14 68 0 236 28 254 43 8 6
91 7 225 3 136 -4 235 -3 273 4 33 6 82 14 108 19 85 14 119 86 82 175 -9 20
-50 72 -93 115 -69 70 -86 82 -162 110 -113 43 -156 61 -210 90 -25 13 -97 36
-160 52 -63 15 -146 41 -185 57 -134 55 -221 70 -451 76 -116 3 -213 4 -215 2z"/>
<path d="M9970 6589 c-229 -20 -516 -92 -728 -183 -46 -20 -90 -36 -98 -36 -7
0 -60 13 -116 29 -217 62 -447 87 -717 78 -405 -14 -650 -82 -1066 -295 -39
-20 -207 -135 -265 -181 -76 -60 -190 -162 -275 -246 -184 -181 -253 -240
-500 -433 -120 -94 -511 -322 -551 -322 -5 0 -22 -7 -38 -15 -16 -8 -54 -22
-85 -31 -31 -8 -65 -19 -76 -24 -35 -15 -137 -30 -201 -30 -76 0 -183 36 -224
75 -15 14 -40 52 -55 83 -27 53 -29 65 -29 187 0 103 5 152 24 235 29 127 28
175 -4 245 -59 129 -223 152 -333 46 -51 -49 -76 -105 -103 -222 -11 -52 -25
-114 -31 -137 -5 -24 -16 -96 -24 -160 -74 -595 152 -1059 635 -1302 150 -76
380 -141 620 -176 233 -35 873 -20 1175 26 33 5 114 16 180 25 572 75 1147
251 1520 464 213 121 416 284 530 426 22 28 42 52 45 55 3 3 18 24 34 48 16
23 31 42 35 42 3 0 31 -28 61 -62 115 -129 358 -295 550 -377 30 -13 73 -31
95 -41 263 -117 761 -223 1185 -251 512 -33 1078 -12 1460 55 195 35 357 73
405 95 11 5 38 15 60 21 42 13 56 19 175 71 513 227 779 655 741 1190 -10 125
-38 280 -77 409 -25 85 -104 280 -129 320 -49 76 -123 120 -203 120 -182 0
-256 -171 -162 -375 15 -32 57 -205 64 -263 14 -111 -28 -234 -98 -287 -178
-135 -589 -68 -1070 177 -214 109 -405 231 -706 453 -75 55 -145 105 -155 112
-119 72 -166 99 -242 137 -48 24 -119 56 -158 71 -38 14 -79 31 -90 36 -36 17
-183 58 -282 78 -224 47 -462 61 -703 40z"/>
</g>
</svg>
